<?xml version="1.0" standalone="no"?>
<!DOCTYPE svg PUBLIC "-//W3C//DTD SVG 20010904//EN"
 "http://www.w3.org/TR/2001/REC-SVG-20010904/DTD/svg10.dtd">
<svg version="1.0" xmlns="http://www.w3.org/2000/svg"
 width="736.000000pt" height="718.000000pt" viewBox="0 0 736.000000 718.000000"
 preserveAspectRatio="xMidYMid meet">

<g transform="translate(0.000000,718.000000) scale(0.100000,-0.100000)"
fill="#000000" stroke="none">
<path d="M0 3590 l0 -3590 3680 0 3680 0 0 3590 0 3590 -3680 0 -3680 0 0
-3590z m3203 1983 c-210 -2 -556 -2 -770 0 -213 1 -41 2 382 2 424 0 598 -1
388 -2z m1660 0 c-211 -2 -555 -2 -765 0 -211 1 -39 2 382 2 421 0 593 -1 383
-2z m-2812 -2150 c8 -8 35 -13 80 -13 l69 0 0 60 0 60 108 0 107 0 59 40 60
39 -80 3 -79 3 0 315 0 315 143 3 142 3 0 -320 0 -319 -46 -41 -47 -41 47 0
c40 0 47 -3 44 -17 -3 -15 -16 -19 -71 -21 -54 -2 -72 -7 -92 -26 -30 -28 -31
-36 -6 -36 10 0 21 9 24 20 4 17 9 18 38 10 18 -5 35 -14 38 -19 3 -5 20 -11
36 -13 l30 -3 3 -182 2 -183 -45 0 c-43 0 -45 -1 -45 -30 0 -17 5 -30 13 -30
8 0 7 -3 -3 -10 -8 -5 -17 -31 -20 -62 l-5 -53 -111 -3 c-125 -3 -124 -4 -124
81 l0 37 -87 2 -88 2 83 3 82 4 0 29 0 30 -287 2 -288 3 233 2 232 3 0 165 0
165 -69 0 c-50 0 -74 4 -85 16 -14 14 -16 123 -14 1072 l3 1057 2 -1054 c2
-759 6 -1058 14 -1068z m1556 1620 c-1 -93 -3 -17 -3 167 0 184 2 260 3 168 2
-93 2 -243 0 -335z m90 0 c-1 -93 -3 -17 -3 167 0 184 2 260 3 168 2 -93 2
-243 0 -335z m1556 -1625 c-14 -16 -33 -18 -150 -18 l-133 0 0 -165 0 -165
303 -2 302 -3 -302 -2 -303 -3 0 -29 c0 -22 -5 -30 -22 -33 -13 -2 -162 -3
-333 -2 -285 2 -314 4 -360 23 -27 11 -49 25 -47 30 1 6 -11 11 -28 11 -29 0
-30 -1 -30 -50 0 -49 -1 -50 -30 -51 -16 -1 -35 -2 -42 -3 -6 -1 -19 22 -28
49 l-17 50 -59 6 -59 6 58 1 c56 2 58 3 51 25 -24 74 -74 264 -74 279 0 10 -7
21 -16 25 -9 3 -12 9 -6 12 5 3 -1 61 -14 141 -13 74 -25 158 -26 185 -1 28
-5 -137 -8 -365 l-5 -415 -587 -3 -588 -2 0 775 0 775 590 0 590 0 0 -50 c0
-56 7 -60 65 -36 29 12 35 20 35 44 0 36 -25 99 -42 104 -7 3 -9 12 -5 22 4
10 13 16 21 13 13 -5 36 31 36 57 0 8 14 15 34 18 19 2 33 1 30 -3 -2 -4 3
-10 12 -13 10 -4 13 -2 8 6 -5 7 -3 8 5 4 7 -5 10 -14 7 -21 -2 -7 2 -16 10
-19 19 -7 19 -88 -1 -126 -9 -18 -24 -30 -35 -30 -15 0 -20 -7 -20 -24 0 -21
6 -25 32 -28 40 -4 48 -28 19 -57 -26 -26 -87 -28 -120 -4 -20 13 -17 5 15
-40 21 -31 44 -56 49 -57 6 0 35 24 64 54 43 43 52 58 46 76 -6 19 -4 21 14
15 17 -5 21 -2 21 19 0 38 10 56 32 56 12 0 19 6 17 18 -4 42 1 52 26 52 22 0
25 -4 25 -35 0 -19 5 -35 10 -35 12 0 13 -63 1 -75 -5 -6 -6 -32 -1 -59 8 -51
5 -130 -5 -147 -12 -18 -45 -9 -80 22 -20 18 -34 38 -31 45 3 8 0 11 -10 7 -7
-3 -14 -9 -14 -13 0 -18 -82 -90 -102 -90 -38 0 -85 36 -134 102 -31 41 -45
54 -41 38 4 -14 7 -108 8 -210 1 -127 4 -169 9 -134 4 29 11 57 14 63 4 6 37
11 74 12 37 1 76 4 87 7 26 9 30 32 6 32 -11 0 -22 -6 -24 -12 -3 -8 -6 -6 -6
5 -1 12 7 17 29 17 23 0 30 -5 30 -19 0 -14 8 -21 27 -23 26 -3 28 -8 40 -76
7 -46 22 -89 40 -118 l28 -44 5 62 5 63 93 3 92 3 -6 27 c-4 15 -11 37 -15 50
-19 50 -15 53 74 50 l82 -3 20 -62 20 -62 180 -3 180 -3 3 -262 2 -263 133 0
c90 0 137 4 145 12 9 9 13 263 14 1067 l3 1056 2 -1054 c3 -970 2 -1056 -14
-1073z m-2639 1883 c-3 -22 -1 -47 5 -57 10 -18 10 -18 11 2 0 11 6 28 13 39
22 28 31 0 13 -37 -20 -39 -20 -54 -2 -39 28 24 25 -7 -4 -45 -20 -24 -27 -40
-20 -44 7 -4 14 -26 17 -49 l6 -41 73 0 73 0 12 75 c10 62 15 75 30 75 11 0
19 -4 19 -10 0 -5 9 -10 20 -10 12 0 20 7 20 16 0 9 6 14 13 12 8 -3 13 -32
16 -84 l3 -79 17 65 c14 53 21 66 39 68 12 2 22 8 22 13 0 5 9 9 20 9 18 0 20
-7 22 -77 l2 -78 3 68 c3 58 6 67 23 67 17 0 20 -9 23 -67 l3 -68 2 83 c1 47
6 82 12 82 6 0 11 -35 12 -82 l2 -83 3 68 c3 59 6 67 23 67 11 0 20 5 20 10 0
6 9 10 20 10 18 0 20 -7 20 -75 0 -69 2 -75 21 -75 15 0 20 -5 17 -22 l-3 -23
-392 -3 -393 -2 0 25 c0 23 4 25 44 25 47 0 56 9 56 56 0 14 7 27 15 30 13 5
12 13 -10 51 -32 57 -34 84 -5 58 26 -24 32 -16 20 26 -12 41 -4 89 16 89 11
0 13 -9 8 -39z m2074 -90 c39 -27 67 -97 58 -146 -16 -82 -107 -139 -184 -114
-131 41 -149 212 -30 273 43 22 116 16 156 -13z m-2068 -340 c0 -14 6 -17 25
-13 14 2 25 8 25 13 0 5 8 9 18 9 15 -1 15 -2 -3 -16 -16 -12 -21 -30 -25 -95
l-5 -81 -93 -1 c-89 -2 -92 -1 -92 21 0 13 6 22 15 22 12 0 15 15 15 75 0 68
2 75 19 75 11 0 23 -4 26 -10 9 -15 42 -12 49 5 8 21 26 19 26 -4z m660 -41
c0 -5 -4 -10 -10 -10 -5 0 -10 5 -10 10 0 6 5 10 10 10 6 0 10 -4 10 -10z m40
0 c0 -5 -4 -10 -10 -10 -5 0 -10 5 -10 10 0 6 5 10 10 10 6 0 10 -4 10 -10z
m-553 -72 c-3 -7 -5 -2 -5 12 0 14 2 19 5 13 2 -7 2 -19 0 -25z m37 16 c23 -9
20 -24 -4 -24 -11 0 -20 7 -20 15 0 17 2 18 24 9z m1016 -9 c0 -16 -43 -21
-75 -9 -24 10 1 24 43 24 22 0 32 -5 32 -15z m578 -103 c2 -7 -6 -12 -17 -12
-21 0 -27 11 -14 24 9 9 26 2 31 -12z m37 -12 c-5 -8 -11 -8 -17 -2 -6 6 -7
16 -3 22 5 8 11 8 17 2 6 -6 7 -16 3 -22z m50 0 c-5 -8 -11 -8 -17 -2 -6 6 -7
16 -3 22 5 8 11 8 17 2 6 -6 7 -16 3 -22z m51 15 c6 -14 8 -13 20 2 10 14 15
15 24 6 20 -18 2 -32 -36 -28 -40 3 -49 9 -39 24 9 16 25 13 31 -4z m89 -15
c-5 -8 -11 -8 -17 -2 -6 6 -7 16 -3 22 5 8 11 8 17 2 6 -6 7 -16 3 -22z
m-1798 -34 c34 -35 21 -66 -27 -66 -31 0 -39 4 -43 22 -4 15 1 30 15 45 26 28
28 28 55 -1z m982 15 c7 0 11 -7 8 -15 -3 -8 -1 -17 6 -20 9 -5 9 -7 0 -12 -7
-3 -9 -13 -6 -21 5 -12 2 -15 -10 -10 -8 3 -17 2 -19 -3 -5 -16 -46 1 -51 20
-2 10 -3 29 0 42 5 24 10 25 72 19z m68 -113 c-3 -8 -6 -5 -6 6 -1 11 2 17 5
13 3 -3 4 -12 1 -19z m965 -438 c-1 -14 -9 -49 -17 -77 l-16 -53 -55 0 c-48 0
-55 2 -50 18 3 9 10 40 16 67 7 28 14 56 16 63 3 9 20 12 56 10 50 -3 53 -4
50 -28z m-588 -1129 c-8 -46 -9 -46 -39 -33 -28 13 -29 19 -16 55 8 20 15 23
36 20 23 -5 25 -8 19 -42z m879 -18 c-34 -2 -93 -2 -130 0 -37 2 -9 3 62 3 72
0 102 -1 68 -3z m-983 -43 c0 -37 -2 -40 -29 -40 -25 0 -29 -4 -34 -37 -4 -20
-4 -40 -1 -45 10 -17 174 -7 174 11 0 3 -20 17 -45 30 -62 33 -50 39 14 7 77
-39 93 -30 46 26 -14 16 -25 33 -25 37 0 13 572 -13 747 -34 157 -19 196 -43
106 -64 -194 -45 -632 -64 -1448 -64 -807 0 -1266 20 -1439 64 -89 22 -49 45
112 64 64 7 163 16 220 20 109 7 104 9 116 -47 13 -59 10 -59 636 -56 564 3
570 3 590 24 12 12 24 40 27 63 l6 41 83 0 c66 0 84 3 84 14 0 15 15 24 43 25
13 1 17 -7 17 -39z m-1060 -760 c0 -5 -4 -10 -10 -10 -5 0 -10 5 -10 10 0 6 5
10 10 10 6 0 10 -4 10 -10z m510 0 c0 -5 -4 -10 -10 -10 -5 0 -10 5 -10 10 0
6 5 10 10 10 6 0 10 -4 10 -10z m-840 -35 c0 -24 5 -35 15 -35 10 0 15 11 15
35 0 19 5 35 11 35 6 0 9 -17 7 -42 -3 -40 -5 -43 -33 -43 -28 0 -30 3 -33 43
-2 25 1 42 7 42 6 0 11 -16 11 -35z m370 -10 c0 -25 -4 -45 -10 -45 -5 0 -10
20 -10 45 0 25 5 45 10 45 6 0 10 -20 10 -45z m40 0 c0 -25 -4 -45 -10 -45 -5
0 -10 20 -10 45 0 25 5 45 10 45 6 0 10 -20 10 -45z m191 38 c7 -48 4 -83 -6
-83 -13 0 -26 56 -18 78 6 13 22 17 24 5z m190 0 c7 -48 4 -83 -6 -83 -13 0
-26 56 -18 78 6 13 22 17 24 5z m349 -2 c0 -5 9 -11 21 -14 16 -4 20 -12 17
-34 -2 -22 -9 -29 -30 -31 -27 -3 -28 -2 -28 42 0 25 5 46 10 46 6 0 10 -4 10
-9z m226 -2 c4 -8 9 -7 15 2 12 20 22 4 24 -41 2 -28 -2 -40 -11 -40 -8 0 -14
10 -14 25 0 24 -25 45 -52 45 -7 0 -2 -6 12 -13 37 -19 33 -51 -7 -55 -25 -2
-33 1 -33 13 0 11 7 14 28 10 l27 -5 -27 12 c-26 11 -36 36 -21 51 10 11 51 8
59 -4z m445 4 c7 -48 4 -83 -6 -83 -13 0 -26 56 -18 78 6 13 22 17 24 5z
m-1688 -40 c7 -35 2 -43 -29 -43 -21 0 -24 5 -24 35 0 30 3 35 24 35 18 0 25
-7 29 -27z m75 14 c20 -24 8 -52 -24 -52 -30 0 -42 20 -30 51 7 17 40 18 54 1z
m62 3 c0 -5 -4 -10 -10 -10 -5 0 -10 -11 -10 -25 0 -14 -4 -25 -10 -25 -5 0
-10 16 -10 35 0 28 4 35 20 35 11 0 20 -4 20 -10z m70 -25 c0 -19 -4 -35 -10
-35 -5 0 -10 16 -10 35 0 19 5 35 10 35 6 0 10 -16 10 -35z m120 10 c0 -14 5
-25 10 -25 6 0 10 11 10 25 0 14 5 25 10 25 6 0 10 -16 10 -35 0 -32 -2 -35
-30 -35 -28 0 -30 3 -30 35 0 19 5 35 10 35 6 0 10 -11 10 -25z m113 -2 c7
-35 2 -43 -29 -43 -24 0 -35 19 -11 21 10 0 10 2 0 6 -7 2 -13 13 -13 24 0 13
7 19 24 19 18 0 25 -7 29 -27z m107 17 c0 -5 -4 -10 -10 -10 -5 0 -10 -11 -10
-25 0 -14 -4 -25 -10 -25 -5 0 -10 16 -10 35 0 28 4 35 20 35 11 0 20 -4 20
-10z m78 -27 c3 -31 1 -33 -28 -33 -29 0 -31 2 -26 33 2 17 5 33 5 35 1 2 11
2 24 0 17 -2 23 -11 25 -35z m92 2 c0 -19 -4 -35 -10 -35 -5 0 -10 16 -10 35
0 19 5 35 10 35 6 0 10 -16 10 -35z m85 0 c0 -27 -3 -30 -30 -30 -21 0 -31 5
-33 18 -6 33 6 49 35 45 24 -3 28 -8 28 -33z m75 0 c0 -19 -4 -35 -10 -35 -5
0 -10 11 -10 25 0 14 -4 25 -10 25 -5 0 -10 -11 -10 -25 0 -14 -4 -25 -10 -25
-5 0 -10 16 -10 35 0 32 2 35 30 35 28 0 30 -3 30 -35z m73 8 c7 -35 2 -43
-29 -43 -21 0 -24 5 -24 35 0 30 3 35 24 35 18 0 25 -7 29 -27z m148 10 c1
-17 2 -17 6 0 2 9 11 17 19 17 17 0 17 3 -2 -53 -18 -52 -42 -63 -40 -19 0 15
-3 37 -7 50 -6 17 -5 22 7 22 9 0 17 -8 17 -17z m274 -18 c0 -27 -3 -30 -30
-30 -21 0 -31 5 -33 18 -6 33 6 49 35 45 24 -3 28 -8 28 -33z m55 25 c0 -5 -4
-10 -10 -10 -5 0 -10 -11 -10 -25 0 -14 -4 -25 -10 -25 -5 0 -10 16 -10 35 0
28 4 35 20 35 11 0 20 -4 20 -10z m41 -12 l2 -23 4 23 c2 12 11 22 19 22 17 0
17 3 -2 -53 -18 -52 -42 -63 -40 -19 0 15 -3 37 -7 50 -6 17 -5 22 7 22 10 0
17 -9 17 -22z m104 -13 c0 -25 -4 -31 -26 -33 -23 -3 -26 0 -27 33 -1 34 0 36
25 33 23 -2 27 -8 28 -33z m73 22 c20 -24 8 -52 -24 -52 -30 0 -42 20 -30 51
7 17 40 18 54 1z m-788 -412 c0 -8 -7 -15 -15 -15 -8 0 -15 7 -15 15 0 8 7 15
15 15 8 0 15 -7 15 -15z m420 0 c0 -8 -7 -15 -15 -15 -8 0 -15 7 -15 15 0 8 7
15 15 15 8 0 15 -7 15 -15z m840 0 c0 -8 -7 -15 -15 -15 -8 0 -15 7 -15 15 0
8 7 15 15 15 8 0 15 -7 15 -15z m-2692 -57 c27 -77 27 -78 2 -78 -11 0 -20 7
-20 15 0 9 -9 15 -25 15 -14 0 -28 -7 -31 -15 -7 -18 -47 -20 -42 -2 2 6 12
38 22 70 17 50 23 57 45 57 23 0 29 -8 49 -62z m427 -8 c0 -60 -3 -70 -17 -70
-16 0 -18 10 -18 70 0 60 2 70 18 70 15 0 18 -9 17 -70z m45 52 c0 -15 6 -18
29 -14 35 5 38 0 42 -58 3 -35 0 -45 -13 -48 -13 -2 -17 6 -20 35 -2 26 -8 38
-18 38 -15 0 -16 -4 -19 -50 0 -15 -7 -25 -16 -25 -12 0 -15 14 -15 70 0 56 3
70 15 70 8 0 15 -8 15 -18z m1680 -51 l0 -69 -42 0 c-52 -1 -68 11 -68 53 0
39 21 59 56 52 18 -3 24 -1 20 8 -6 15 2 25 21 25 9 0 13 -18 13 -69z m232 -1
c0 -52 -3 -66 -16 -68 -14 -3 -16 7 -16 68 0 61 2 71 16 68 13 -2 16 -16 16
-68z m-2142 5 c8 -41 0 -75 -16 -75 -8 0 -14 15 -16 38 -2 20 -7 37 -13 37 -5
0 -11 -17 -13 -37 -5 -55 -32 -52 -32 3 0 28 -4 39 -12 36 -7 -2 -13 -19 -14
-38 0 -24 -5 -35 -17 -37 -14 -3 -17 5 -17 52 l0 56 72 -2 c72 -3 73 -3 78
-33z m118 23 c7 -7 12 -26 12 -43 0 -39 -16 -55 -55 -55 -39 0 -55 16 -55 55
0 39 16 55 55 55 17 0 36 -5 43 -12z m300 0 c7 -7 12 -26 12 -43 0 -39 -16
-55 -55 -55 -39 0 -55 16 -55 55 0 39 16 55 55 55 17 0 36 -5 43 -12z m102 -2
c0 -7 -9 -16 -20 -19 -15 -4 -20 -14 -20 -41 0 -25 -4 -36 -15 -36 -12 0 -15
13 -15 55 l0 55 35 0 c23 0 35 -5 35 -14z m158 2 c18 -18 15 -85 -4 -92 -26
-10 -69 -7 -82 6 -7 7 -12 26 -12 43 0 39 16 55 55 55 17 0 36 -5 43 -12z m71
-5 c9 -17 10 -17 16 0 4 9 16 17 26 17 18 0 19 -2 5 -29 -13 -25 -13 -31 -1
-47 19 -26 18 -34 -4 -34 -10 0 -22 8 -26 18 -6 16 -7 16 -16 0 -6 -10 -19
-18 -29 -18 -18 0 -18 1 -3 29 16 27 16 30 0 55 -17 25 -17 26 2 26 11 0 24
-8 30 -17z m168 5 c16 -13 17 -70 1 -86 -7 -7 -25 -12 -40 -12 -21 0 -28 -5
-28 -20 0 -11 -7 -20 -15 -20 -12 0 -15 15 -15 74 l0 74 42 0 c23 1 48 -4 55
-10z m131 0 c7 -7 12 -26 12 -43 0 -39 -16 -55 -55 -55 -39 0 -55 16 -55 55 0
39 16 55 55 55 17 0 36 -5 43 -12z m102 -2 c0 -7 -9 -16 -20 -19 -15 -4 -20
-14 -20 -41 0 -25 -4 -36 -15 -36 -12 0 -15 13 -15 55 l0 55 35 0 c23 0 35 -5
35 -14z m40 -41 c0 -42 -3 -55 -15 -55 -12 0 -15 13 -15 55 0 42 3 55 15 55
12 0 15 -13 15 -55z m118 43 c18 -18 15 -85 -4 -92 -26 -10 -69 -7 -82 6 -7 7
-12 26 -12 43 0 39 16 55 55 55 17 0 36 -5 43 -12z m130 -45 c2 -43 0 -53 -12
-53 -12 0 -16 10 -16 34 0 32 -14 55 -26 43 -6 -6 -12 -33 -13 -59 -1 -10 -8
-18 -16 -18 -11 0 -15 13 -15 54 l0 55 48 -2 47 -2 3 -52z m112 42 c18 -21 3
-37 -21 -22 -16 10 -21 9 -28 -2 -16 -25 -1 -43 30 -36 16 4 29 3 29 -2 0 -17
-24 -33 -50 -33 -34 0 -50 17 -50 55 0 17 5 36 12 43 17 17 63 15 78 -3z m60
-40 c0 -42 -3 -55 -15 -55 -12 0 -15 13 -15 55 0 42 3 55 15 55 12 0 15 -13
15 -55z m118 -2 l3 -52 -48 2 c-38 2 -48 6 -51 21 -3 11 4 26 14 33 16 12 16
13 1 13 -9 0 -17 4 -17 8 0 19 27 33 60 30 35 -3 35 -3 38 -55z m300 45 c7 -7
12 -26 12 -43 0 -39 -16 -55 -55 -55 -39 0 -55 16 -55 55 0 39 16 55 55 55 17
0 36 -5 43 -12z m230 0 c7 -7 12 -26 12 -43 0 -39 -16 -55 -55 -55 -39 0 -55
16 -55 55 0 39 16 55 55 55 17 0 36 -5 43 -12z m142 -52 c0 -70 -10 -86 -56
-86 -34 0 -65 24 -42 33 10 4 11 7 1 18 -16 16 -17 71 -1 87 6 6 31 11 55 10
l43 -1 0 -61z m50 9 c0 -42 -3 -55 -15 -55 -12 0 -15 13 -15 55 0 42 3 55 15
55 12 0 15 -13 15 -55z m118 -2 c2 -42 0 -53 -12 -53 -10 0 -16 12 -18 38 -4
43 -32 54 -34 12 -3 -46 -4 -50 -19 -50 -11 0 -15 13 -15 54 l0 55 48 -2 47
-2 3 -52z m-2005 -191 c16 -18 15 -19 -28 -19 -43 0 -44 1 -28 19 9 10 21 18
28 18 7 0 19 -8 28 -18z m227 3 c-7 -8 -19 -15 -26 -15 -8 0 -11 6 -8 15 4 8
15 15 26 15 17 0 18 -3 8 -15z m-100 -10 c0 -8 -7 -15 -15 -15 -8 0 -15 7 -15
15 0 8 7 15 15 15 8 0 15 -7 15 -15z m1540 0 c0 -8 -7 -15 -15 -15 -8 0 -15 7
-15 15 0 8 7 15 15 15 8 0 15 -7 15 -15z m-1310 -10 c0 -8 5 -15 10 -15 6 0
10 -7 10 -15 0 -8 -4 -15 -9 -15 -5 0 -8 -11 -8 -25 0 -14 3 -25 8 -25 5 0 9
-7 9 -16 0 -10 -7 -14 -22 -12 -19 2 -24 10 -26 41 -2 20 -7 37 -13 37 -5 0
-9 7 -9 15 0 8 5 15 10 15 6 0 10 7 10 15 0 8 7 15 15 15 8 0 15 -7 15 -15z
m1440 -54 l0 -69 -42 0 c-52 -1 -68 11 -68 52 0 39 15 56 52 56 15 0 27 3 27
8 -3 16 2 22 16 22 12 0 15 -14 15 -69z m-2570 -36 c0 -67 -2 -75 -19 -75 -14
0 -18 5 -14 20 4 17 0 20 -24 20 -37 0 -53 16 -53 55 0 42 16 55 67 55 l43 0
0 -75z m50 48 c0 -16 4 -34 9 -42 14 -22 31 -3 31 35 0 24 5 34 15 34 11 0 15
-13 15 -54 l0 -55 -47 2 -48 2 -3 53 c-2 42 0 52 12 52 11 0 16 -9 16 -27z
m188 15 c18 -18 15 -85 -4 -92 -26 -10 -69 -7 -82 6 -7 7 -12 26 -12 43 0 17
5 36 12 43 7 7 26 12 43 12 17 0 36 -5 43 -12z m120 -20 l8 -33 12 33 c7 21
17 32 31 32 19 0 20 -1 2 -52 -15 -43 -22 -53 -40 -53 -18 0 -27 10 -42 50
-23 61 -23 55 1 55 14 0 22 -10 28 -32z m180 20 c7 -7 12 -26 12 -43 0 -39
-16 -55 -55 -55 -39 0 -55 16 -55 55 0 39 16 55 55 55 17 0 36 -5 43 -12z
m120 0 c20 -20 13 -30 -17 -23 -31 7 -46 -11 -30 -36 7 -11 12 -12 29 -1 26
16 30 15 30 -7 0 -20 -18 -31 -54 -31 -31 0 -46 18 -46 55 0 38 16 55 50 55
14 0 31 -5 38 -12z m130 0 c7 -7 12 -26 12 -43 0 -39 -16 -55 -55 -55 -39 0
-55 16 -55 55 0 39 16 55 55 55 17 0 36 -5 43 -12z m110 -60 c-3 -67 -5 -73
-25 -76 -16 -2 -23 2 -23 12 0 9 5 16 10 16 6 0 10 27 10 60 0 47 3 60 15 60
13 0 15 -13 13 -72z m120 15 l3 -52 -48 2 c-38 2 -48 6 -51 21 -3 11 4 26 14
33 16 12 16 13 1 13 -9 0 -17 4 -17 8 0 19 27 33 60 30 35 -3 35 -3 38 -55z
m250 45 c7 -7 12 -26 12 -43 0 -39 -16 -55 -55 -55 -39 0 -55 16 -55 55 0 39
16 55 55 55 17 0 36 -5 43 -12z m70 -15 l10 -28 11 28 c6 17 18 27 31 27 l20
0 -20 -50 c-11 -28 -20 -53 -20 -56 0 -3 -9 -4 -21 -2 -15 2 -27 18 -40 53
-23 60 -23 55 0 55 12 0 23 -10 29 -27z m180 15 c18 -18 15 -85 -4 -92 -26
-10 -69 -7 -82 6 -7 7 -12 26 -12 43 0 39 16 55 55 55 17 0 36 -5 43 -12z
m180 -45 c2 -43 0 -53 -12 -53 -12 0 -16 10 -16 34 0 32 -14 55 -26 43 -6 -6
-12 -33 -13 -59 -1 -10 -8 -18 -16 -18 -11 0 -15 13 -15 54 l0 55 48 -2 47 -2
3 -52z m120 0 l3 -52 -48 2 c-38 2 -48 6 -51 21 -3 11 4 26 14 33 16 12 16 13
1 13 -9 0 -17 4 -17 8 0 19 27 33 60 30 35 -3 35 -3 38 -55z m156 40 c4 -9 1
-20 -6 -25 -11 -6 -10 -8 0 -8 9 0 12 -10 10 -27 -2 -24 -8 -29 -36 -31 -18
-2 -40 2 -49 9 -13 12 -13 14 3 26 10 7 12 13 6 13 -13 0 -17 42 -5 53 14 14
71 7 77 -10z m60 -23 c1 -50 30 -48 34 3 4 50 29 50 34 -1 6 -66 2 -71 -50
-69 l-47 2 -3 53 c-3 47 -1 53 14 50 13 -2 18 -13 18 -38z m184 -17 l3 -52
-48 2 c-38 2 -48 6 -51 21 -3 11 4 26 14 33 16 12 16 13 1 13 -9 0 -17 4 -17
8 0 19 27 33 60 30 35 -3 35 -3 38 -55z m110 25 l8 -33 12 33 c7 22 17 32 31
32 l21 0 -20 -50 c-11 -28 -20 -53 -20 -56 0 -3 -9 -4 -21 -2 -15 2 -27 18
-40 53 -23 61 -23 55 1 55 14 0 22 -10 28 -32z m112 -23 c0 -42 -3 -55 -15
-55 -12 0 -15 13 -15 55 0 42 3 55 15 55 12 0 15 -13 15 -55z m248 -2 l3 -52
-48 2 c-38 2 -48 6 -51 21 -3 11 4 26 14 33 16 12 16 13 1 13 -9 0 -17 4 -17
8 0 19 27 33 60 30 35 -3 35 -3 38 -55z m52 -38 c0 -8 -7 -15 -15 -15 -8 0
-15 7 -15 15 0 8 7 15 15 15 8 0 15 -7 15 -15z"/>
<path d="M2510 3550 c-9 -6 -10 -10 -3 -10 6 0 15 5 18 10 8 12 4 12 -15 0z"/>
<path d="M2432 3180 c0 -19 2 -27 5 -17 2 9 2 25 0 35 -3 9 -5 1 -5 -18z"/>
<path d="M4018 4633 c7 -3 16 -2 19 1 4 3 -2 6 -13 5 -11 0 -14 -3 -6 -6z"/>
<path d="M4040 4540 c0 -5 5 -10 11 -10 5 0 7 5 4 10 -3 6 -8 10 -11 10 -2 0
-4 -4 -4 -10z"/>
<path d="M4213 4368 c-7 -17 -6 -32 3 -55 20 -47 34 -50 34 -6 0 45 -9 83 -20
83 -4 0 -11 -10 -17 -22z"/>
<path d="M3226 4368 c-23 -6 -58 -29 -86 -57 -73 -70 -88 -154 -44 -246 16
-35 19 -37 28 -19 17 30 76 84 92 84 18 0 17 10 -1 34 -22 29 -18 70 10 100
53 58 145 21 145 -59 0 -18 -6 -40 -14 -48 -13 -13 -10 -17 22 -38 20 -13 47
-39 59 -58 l23 -34 21 48 c73 165 -79 340 -255 293z"/>
<path d="M4545 3890 c8 -13 105 -13 125 0 10 7 -7 10 -58 10 -46 0 -71 -4 -67
-10z"/>
<path d="M4545 3720 c3 -5 33 -10 65 -10 32 0 62 5 65 10 4 6 -20 10 -65 10
-45 0 -69 -4 -65 -10z"/>
<path d="M4094 3594 c3 -27 8 -79 11 -116 l7 -68 64 0 c49 0 64 3 64 14 0 16
-113 188 -136 207 -12 10 -14 5 -10 -37z"/>
<path d="M4114 3378 c3 -13 10 -87 17 -165 l12 -143 32 0 32 0 12 84 c6 46 14
120 18 165 l6 81 -67 0 c-64 0 -66 -1 -62 -22z"/>
<path d="M4540 3360 c0 -6 28 -10 64 -10 36 0 68 5 71 10 4 6 -20 10 -64 10
-41 0 -71 -4 -71 -10z"/>
<path d="M3066 3227 c-21 -16 -24 -60 -6 -82 10 -12 48 -15 225 -15 193 0 213
2 228 18 23 26 21 58 -5 76 -30 22 -414 24 -442 3z m217 -37 c16 -1 6 -28 -13
-33 -30 -8 -104 4 -88 14 10 7 10 9 1 9 -7 0 -13 5 -13 11 0 7 18 9 53 5 28
-3 55 -5 60 -6z m46 -12 c1 19 31 14 31 -5 0 -15 -2 -16 -10 -3 -6 10 -10 11
-10 3 0 -7 -7 -13 -15 -13 -9 0 -15 9 -14 23 0 21 1 21 9 2 5 -11 9 -14 9 -7z"/>
<path d="M2996 5103 c-4 -21 -9 -46 -12 -55 -4 -12 0 -18 10 -18 13 0 16 12
16 55 0 64 -5 70 -14 18z"/>
<path d="M2848 5080 c-7 -43 -4 -59 8 -48 3 3 4 26 2 49 l-3 44 -7 -45z"/>
<path d="M2623 4780 c0 -30 2 -43 4 -27 2 15 2 39 0 55 -2 15 -4 2 -4 -28z"/>
<path d="M3770 4590 c0 -5 5 -10 10 -10 6 0 10 5 10 10 0 6 -4 10 -10 10 -5 0
-10 -4 -10 -10z"/>
<path d="M3900 2075 c0 -8 5 -15 10 -15 6 0 10 7 10 15 0 8 -4 15 -10 15 -5 0
-10 -7 -10 -15z"/>
<path d="M3645 2079 c-10 -15 3 -25 16 -12 7 7 7 13 1 17 -6 3 -14 1 -17 -5z"/>
<path d="M4215 2079 c-10 -15 3 -25 16 -12 7 7 7 13 1 17 -6 3 -14 1 -17 -5z"/>
<path d="M2250 1620 c0 -5 5 -10 10 -10 6 0 10 5 10 10 0 6 -4 10 -10 10 -5 0
-10 -4 -10 -10z"/>
<path d="M4388 1618 c-7 -19 2 -38 17 -38 15 0 24 19 18 38 -3 6 -11 12 -18
12 -7 0 -15 -6 -17 -12z"/>
<path d="M2618 1623 c7 -3 16 -2 19 1 4 3 -2 6 -13 5 -11 0 -14 -3 -6 -6z"/>
<path d="M2618 1583 c6 -2 18 -2 25 0 6 3 1 5 -13 5 -14 0 -19 -2 -12 -5z"/>
<path d="M2908 1618 c-7 -19 2 -38 17 -38 15 0 24 19 18 38 -3 6 -11 12 -18
12 -7 0 -15 -6 -17 -12z"/>
<path d="M3178 1623 c7 -3 16 -2 19 1 4 3 -2 6 -13 5 -11 0 -14 -3 -6 -6z"/>
<path d="M3178 1583 c6 -2 18 -2 25 0 6 3 1 5 -13 5 -14 0 -19 -2 -12 -5z"/>
<path d="M3410 1605 c0 -26 24 -35 32 -12 7 18 -2 37 -18 37 -8 0 -14 -10 -14
-25z"/>
<path d="M3548 1623 c7 -3 16 -2 19 1 4 3 -2 6 -13 5 -11 0 -14 -3 -6 -6z"/>
<path d="M3548 1583 c6 -2 18 -2 25 0 6 3 1 5 -13 5 -14 0 -19 -2 -12 -5z"/>
<path d="M3808 1623 c7 -3 16 -2 19 1 4 3 -2 6 -13 5 -11 0 -14 -3 -6 -6z"/>
<path d="M3808 1583 c6 -2 18 -2 25 0 6 3 1 5 -13 5 -14 0 -19 -2 -12 -5z"/>
<path d="M4230 1590 c-9 -6 -10 -10 -3 -10 6 0 15 5 18 10 8 12 4 12 -15 0z"/>
<path d="M4528 1623 c7 -3 16 -2 19 1 4 3 -2 6 -13 5 -11 0 -14 -3 -6 -6z"/>
<path d="M4528 1583 c6 -2 18 -2 25 0 6 3 1 5 -13 5 -14 0 -19 -2 -12 -5z"/>
<path d="M4748 1618 c-7 -19 2 -38 17 -38 15 0 24 19 18 38 -3 6 -11 12 -18
12 -7 0 -15 -6 -17 -12z"/>
<path d="M4878 1618 c-7 -19 2 -38 17 -38 15 0 24 19 18 38 -3 6 -11 12 -18
12 -7 0 -15 -6 -17 -12z"/>
<path d="M4895 1550 c-16 -7 -17 -9 -3 -9 9 -1 20 4 23 9 7 11 7 11 -20 0z"/>
<path d="M4838 1338 c-7 -19 2 -38 17 -38 15 0 24 19 18 38 -3 6 -11 12 -18
12 -7 0 -15 -6 -17 -12z"/>
<path d="M2268 1338 c-7 -19 2 -38 18 -38 8 0 14 10 14 25 0 26 -24 35 -32 13z"/>
<path d="M2528 1343 c7 -3 16 -2 19 1 4 3 -2 6 -13 5 -11 0 -14 -3 -6 -6z"/>
<path d="M2528 1303 c6 -2 18 -2 25 0 6 3 1 5 -13 5 -14 0 -19 -2 -12 -5z"/>
<path d="M2818 1338 c-7 -19 2 -38 17 -38 15 0 24 19 18 38 -3 6 -11 12 -18
12 -7 0 -15 -6 -17 -12z"/>
<path d="M3078 1343 c7 -3 16 -2 19 1 4 3 -2 6 -13 5 -11 0 -14 -3 -6 -6z"/>
<path d="M3078 1303 c6 -2 18 -2 25 0 6 3 1 5 -13 5 -14 0 -19 -2 -12 -5z"/>
<path d="M3558 1343 c7 -3 16 -2 19 1 4 3 -2 6 -13 5 -11 0 -14 -3 -6 -6z"/>
<path d="M3558 1303 c6 -2 18 -2 25 0 6 3 1 5 -13 5 -14 0 -19 -2 -12 -5z"/>
<path d="M3808 1343 c7 -3 16 -2 19 1 4 3 -2 6 -13 5 -11 0 -14 -3 -6 -6z"/>
<path d="M3808 1303 c6 -2 18 -2 25 0 6 3 1 5 -13 5 -14 0 -19 -2 -12 -5z"/>
<path d="M4505 1310 c-3 -5 -1 -10 4 -10 6 0 11 5 11 10 0 6 -2 10 -4 10 -3 0
-8 -4 -11 -10z"/>
<path d="M4980 1310 c-9 -6 -10 -10 -3 -10 6 0 15 5 18 10 8 12 4 12 -15 0z"/>
</g>
</svg>
